<svg width="160" height="60" viewBox="0 0 160 60" fill="none" xmlns="http://www.w3.org/2000/svg">
<mask id="mask0_721_69544" style="mask-type:luminance" maskUnits="userSpaceOnUse" x="8" y="5" width="40" height="50">
<path d="M19.5542 48.3917C18.0274 46.1685 17.9024 43.8739 19.706 40.7757C21.5095 37.6776 27.429 33.7312 27.429 33.7312C27.429 33.7312 30.8218 31.9456 30.8218 30.1152C30.8262 30.0767 30.8262 30.0377 30.8218 29.9992C30.8218 29.9545 30.8218 29.9188 30.8218 29.8742C30.8218 28.0885 27.429 26.2582 27.429 26.2582C27.1522 26.0707 21.4738 22.2404 19.7238 19.2137C17.9738 16.1869 18.0542 13.8566 19.572 11.6067C21.0899 9.3567 24.8576 8.0353 30.5807 8.35672C36.3039 8.67815 42.5805 10.4549 47.3036 14.7048C47.3036 14.7048 43.2769 7.5621 33.0182 5.54428C29.0153 4.71032 24.8718 4.83622 20.927 5.91167C16.9821 6.98712 13.348 8.98154 10.3222 11.7317C9.31819 12.5318 8.59821 13.6336 8.26868 14.8745C7.69726 17.6512 10.3311 20.044 12.5007 22.0975C15.4025 24.8386 16.6882 27.5528 16.6703 29.9992C16.6524 32.4455 15.4114 35.1598 12.5275 37.9008C10.3579 39.9454 7.72404 42.365 8.29546 45.1149C8.61783 46.3572 9.32777 47.4643 10.3222 48.2756C13.3488 51.0242 16.9833 53.0169 20.9281 54.0908C24.8729 55.1647 29.016 55.2892 33.0182 54.4541C43.2769 52.4541 47.3036 45.2935 47.3036 45.2935C42.5805 49.5345 36.286 51.2755 30.5897 51.6416C24.8934 52.0077 21.072 50.6148 19.5542 48.3917Z" fill="white"/>
</mask>
<g mask="url(#mask0_721_69544)">
<path d="M15.4728 20.6868L27.4101 26.2582C27.1333 26.0707 21.4548 22.2404 19.7049 19.2137C17.9549 16.1869 18.0352 13.8566 19.5531 11.6067C21.0709 9.35671 24.8387 8.0353 30.5618 8.35672C36.2849 8.67815 42.5794 10.4549 47.3025 14.7048C47.3025 14.7048 43.2758 7.5621 33.0171 5.54428C29.0142 4.71032 24.8707 4.83622 20.9259 5.91167C16.981 6.98712 13.3469 8.98154 10.3211 11.7317C9.31709 12.5318 8.59711 13.6336 8.26758 14.8745C8.38365 17.919 15.4728 20.6868 15.4728 20.6868Z" fill="#2F98D5"/>
<path d="M19.5531 48.3909C18.0263 46.1677 17.9013 43.8731 19.7049 40.775C21.5084 37.6768 27.4279 33.7305 27.4279 33.7305L15.4728 39.3464C15.4728 39.3464 8.38365 42.1142 8.33008 45.1588C8.65139 46.3802 9.34776 47.4701 10.3211 48.2748C13.3477 51.0234 16.9822 53.0162 20.927 54.0901C24.8719 55.1639 29.0149 55.2884 33.0171 54.4533C43.2758 52.4533 47.3025 45.2927 47.3025 45.2927C42.5794 49.5337 36.2849 51.2748 30.5886 51.6408C24.8923 52.0069 21.0709 50.6141 19.5531 48.3909Z" fill="#F9AE00"/>
<path d="M15.4739 39.3486L27.429 33.7773C27.429 33.7773 30.8218 31.9916 30.8218 30.1613C30.8262 30.1227 30.8262 30.0838 30.8218 30.0452C30.8218 30.0005 30.8218 29.9648 30.8218 29.9202C30.8218 28.1345 27.429 26.3042 27.429 26.3042L15.4739 20.6882C15.4739 20.6882 8.38474 17.9204 8.26868 14.8848C7.69726 17.6526 10.3311 20.0454 12.5007 22.0989C15.4025 24.8399 16.6882 27.5542 16.6703 30.0005C16.6524 32.4469 15.4114 35.1612 12.5275 37.9022C10.3579 39.9468 7.72404 42.3664 8.29546 45.1163C8.38474 42.0717 15.4739 39.3486 15.4739 39.3486Z" fill="#E40E20"/>
</g>
<path d="M40.9817 31.6678C40.9703 31.8603 41.0216 32.0513 41.1278 32.2122C41.234 32.3731 41.3895 32.4954 41.571 32.5606C42.0439 32.7763 42.5602 32.8802 43.0799 32.8642C43.6759 32.8724 44.272 32.8486 44.8655 32.7927C45.4459 32.7302 45.9994 32.6677 46.5084 32.5963C47.0173 32.5249 47.3208 32.4802 47.4012 32.4802C47.4681 32.8961 47.4437 33.3216 47.3296 33.7271C47.2155 34.1326 47.0145 34.5084 46.7405 34.8284C46.2494 35.2927 45.2673 35.5159 43.7852 35.5159C41.7406 35.5159 40.2138 35.1052 39.321 34.2749C38.4282 33.4445 37.8835 32.016 37.8835 29.9624C37.8602 29.0836 37.9901 28.2074 38.2674 27.3732C38.4822 26.732 38.8832 26.1694 39.4192 25.7572C39.9233 25.3883 40.4929 25.1186 41.0977 24.9625C41.8096 24.8025 42.5379 24.7276 43.2674 24.7393C44.5158 24.632 45.7597 24.9915 46.7584 25.7482C47.1641 26.171 47.4745 26.6759 47.6686 27.2288C47.8627 27.7818 47.9359 28.3699 47.8833 28.9535C47.9057 29.4254 47.791 29.8936 47.553 30.3017C47.3459 30.6272 47.0292 30.8679 46.6601 30.9803C46.2504 31.1073 45.8285 31.1911 45.4012 31.2303C44.931 31.2951 44.4562 31.322 43.9816 31.3106C43.4657 31.2916 42.949 31.3155 42.437 31.382C41.9415 31.413 41.4522 31.5091 40.9817 31.6678ZM40.8745 29.6589C41.2002 29.4762 41.564 29.3722 41.937 29.3553C42.4281 29.3017 42.8924 29.2749 43.312 29.266C43.7084 29.2651 44.0993 29.1735 44.4548 28.9982C44.6075 28.9294 44.7356 28.8155 44.8217 28.6719C44.9079 28.5283 44.9481 28.3617 44.937 28.1946C44.937 27.8643 44.678 27.5875 44.1513 27.3643C43.48 27.0614 42.7164 27.0357 42.0263 27.2928C41.071 27.6321 40.687 28.4178 40.8745 29.6589Z" fill="white"/>
<path d="M60.1773 28.3745V35.3476C59.7937 35.3706 59.4091 35.3706 59.0255 35.3476C58.7193 35.313 58.4191 35.2379 58.1327 35.1244C57.8611 35.0185 57.6363 34.819 57.4987 34.5619C57.3579 34.2515 57.2965 33.9109 57.3202 33.5709V28.437C57.1238 27.4996 56.2577 27.1335 54.7131 27.3299C54.241 27.3697 53.7724 27.4443 53.3113 27.5531C53.3573 27.8064 53.3782 28.0636 53.3738 28.321V33.5619C53.3995 33.903 53.3348 34.2449 53.1863 34.553C53.0464 34.8081 52.8224 35.0069 52.5524 35.1155C52.2665 35.2307 51.9661 35.3059 51.6596 35.3387C51.2761 35.3662 50.8912 35.3662 50.5078 35.3387V26.0174C50.5078 25.1871 51.8471 24.7496 54.5167 24.6871C58.2666 24.5889 60.1683 25.8121 60.1773 28.3745Z" fill="white"/>
<path d="M70.1959 20.5977C70.408 20.7449 70.6535 20.837 70.9102 20.8655C71.1706 20.9016 71.433 20.9225 71.6959 20.928C71.9264 20.9265 72.1556 20.9627 72.3744 21.0351C72.4891 21.079 72.5934 21.1461 72.681 21.2321C72.7686 21.3181 72.8375 21.4213 72.8834 21.5351C73.0228 21.9085 73.0836 22.3067 73.0619 22.7048V33.9903L72.8834 34.2135C72.7911 34.3314 72.6896 34.4419 72.5798 34.5438C72.426 34.668 72.2617 34.7785 72.0887 34.8742C71.8338 35.0088 71.5641 35.1137 71.2852 35.1867C70.9905 35.2581 70.5977 35.3295 70.0977 35.4009C69.5404 35.4641 68.98 35.4969 68.4192 35.4992C66.4549 35.4992 65.0442 35.0736 64.1871 34.2224C63.2943 33.3742 62.9014 31.9546 62.9014 29.9814C62.8889 29.2849 62.9915 28.591 63.205 27.9279C63.3722 27.3837 63.6487 26.8794 64.0175 26.4458C64.3561 26.0585 64.7613 25.735 65.2139 25.4904C65.651 25.2412 66.1237 25.0605 66.6156 24.9547C67.0995 24.8494 67.5936 24.7985 68.0888 24.8029C68.8209 24.7414 69.5546 24.9 70.1959 25.2583V20.5977ZM70.1959 30.16V27.4815C70.0263 27.4279 69.8388 27.3832 69.6513 27.3386C69.4089 27.2981 69.1645 27.2712 68.9191 27.2582C68.64 27.2312 68.359 27.2312 68.0799 27.2582C67.7995 27.2825 67.5265 27.3614 67.2763 27.4904C67.003 27.6094 66.7546 27.7791 66.5442 27.9904C66.3149 28.2469 66.147 28.5522 66.0531 28.8832C65.9125 29.3123 65.8461 29.7622 65.8567 30.2135C65.8487 30.6474 65.9276 31.0785 66.0888 31.4814C66.2129 31.7936 66.4051 32.0742 66.6513 32.3028C66.8934 32.5047 67.1768 32.651 67.4817 32.7314C67.774 32.8148 68.0726 32.8745 68.3745 32.9099C68.6714 32.9388 68.9704 32.9388 69.2674 32.9099C69.5709 32.9099 69.7852 32.8474 69.9102 32.8296L70.2495 32.7492C70.2495 32.7492 70.1959 31.8474 70.1959 30.151V30.16Z" fill="white"/>
<path d="M75.7754 30.044C75.7754 29.9637 75.7754 29.8655 75.7754 29.7316C75.7786 29.4834 75.7995 29.2357 75.8379 28.9905C75.8791 28.6309 75.9508 28.2755 76.0522 27.928C76.1855 27.5331 76.3654 27.1555 76.5879 26.803C76.8432 26.3994 77.1664 26.043 77.5432 25.7495C77.9994 25.4114 78.5139 25.1602 79.061 25.0084C79.7714 24.8016 80.5087 24.7023 81.2485 24.7138C81.7812 24.7106 82.3131 24.7554 82.8378 24.8477C83.2673 24.925 83.6866 25.0508 84.0877 25.2227C84.4104 25.3708 84.7109 25.5631 84.9806 25.7941C85.2328 25.9926 85.4606 26.2204 85.6591 26.4727C85.8477 26.7147 86.001 26.9823 86.1145 27.2673C86.2222 27.5266 86.3146 27.7919 86.3913 28.0619C86.4599 28.3192 86.5047 28.5822 86.5252 28.8476C86.5252 29.1512 86.5252 29.3744 86.5252 29.5262C86.5252 29.678 86.5252 29.8833 86.5252 30.1065C86.5252 30.3298 86.5252 30.4726 86.5252 30.4994C86.5349 30.6838 86.5349 30.8686 86.5252 31.053C86.5252 31.2226 86.4716 31.4815 86.4091 31.8476C86.3556 32.175 86.2658 32.4954 86.1413 32.8029C85.9989 33.1227 85.8158 33.4228 85.5966 33.6958C85.3496 34.0249 85.0475 34.3088 84.7038 34.535C84.2929 34.7855 83.8477 34.9749 83.3824 35.0975C82.8001 35.2538 82.1996 35.3318 81.5967 35.3297C80.9689 35.3324 80.3419 35.2846 79.7217 35.1868C79.2488 35.1303 78.7824 35.0287 78.3289 34.8832C77.958 34.7449 77.6159 34.5391 77.32 34.2761C77.0543 34.0459 76.8202 33.7818 76.6236 33.4904C76.4292 33.1837 76.2817 32.8497 76.1861 32.4994C76.072 32.1101 75.9854 31.7133 75.9272 31.3119C75.8647 30.9637 75.82 30.544 75.7754 30.044ZM78.6236 30.2137C78.6584 30.5833 78.7181 30.9502 78.8021 31.3119C78.8842 31.591 79.0141 31.8539 79.186 32.0887C79.399 32.3587 79.6933 32.5528 80.0253 32.6422C80.4839 32.772 80.9595 32.8322 81.436 32.8208C81.8279 32.8316 82.2175 32.7586 82.5788 32.6065C82.8527 32.5065 83.0979 32.341 83.2931 32.1244C83.455 31.932 83.5792 31.7109 83.6592 31.4726C83.7291 31.2878 83.78 31.0963 83.811 30.9012C83.8207 30.7615 83.8207 30.6212 83.811 30.4815V29.9815C83.8174 29.8566 83.8174 29.7315 83.811 29.6066C83.8003 29.4618 83.7764 29.3184 83.7395 29.178C83.7062 29.0318 83.6614 28.8885 83.6056 28.7494C83.5523 28.5982 83.4804 28.4542 83.3913 28.3209C83.2993 28.181 83.1881 28.0548 83.061 27.9459C82.9317 27.8162 82.7806 27.7104 82.6145 27.6334C82.4233 27.5375 82.2186 27.4712 82.0074 27.437C81.3174 27.2951 80.602 27.3413 79.936 27.5709C79.639 27.6702 79.3698 27.8385 79.1503 28.0619C78.9681 28.27 78.8366 28.5176 78.7664 28.7851C78.693 29.0112 78.6451 29.2448 78.6236 29.4816C78.6236 29.6512 78.6236 29.8565 78.6236 30.1155C78.6253 30.1482 78.6253 30.181 78.6236 30.2137Z" fill="white"/>
<path d="M96.319 24.7211C96.3005 24.8544 96.3005 24.9896 96.319 25.1229C96.3371 25.3547 96.3371 25.5875 96.319 25.8193C96.2863 26.0638 96.2356 26.3055 96.1672 26.5425C96.0887 26.7932 95.9243 27.0082 95.7029 27.1496C95.4328 27.3089 95.1236 27.3893 94.8101 27.3818C94.3925 27.374 93.9749 27.3948 93.5601 27.4443C93.2799 27.4785 93.0112 27.5763 92.7744 27.73C92.5433 27.8794 92.3799 28.1133 92.3191 28.3817C92.2271 28.7555 92.1851 29.1398 92.1941 29.5246V35.6584C91.9248 35.4707 91.6215 35.3373 91.3012 35.2655C90.9262 35.1673 90.6048 35.0959 90.3459 35.0423C90.0674 34.9826 89.8201 34.824 89.6495 34.5959C89.426 34.2785 89.3188 33.8938 89.3459 33.5066V28.3817C89.3459 28.3014 89.3459 28.1942 89.3459 28.0692C89.3459 27.9442 89.3459 27.7478 89.4084 27.5068C89.453 27.2663 89.5188 27.0303 89.6048 26.8014C89.8254 26.2465 90.1889 25.7598 90.6584 25.3907C90.9582 25.1791 91.2897 25.0164 91.6405 24.9086C92.0809 24.7783 92.5384 24.7151 92.9976 24.7211H96.3369H96.319Z" fill="white"/>
<path d="M101.534 39.5785C101.269 39.3991 100.961 39.2943 100.641 39.2749C100.266 39.2749 99.9448 39.2303 99.6859 39.2303C99.5457 39.2214 99.4095 39.1796 99.2885 39.1083C99.1675 39.0369 99.0651 38.938 98.9895 38.8196C98.7521 38.4121 98.6461 37.9413 98.6859 37.4714V26.177L98.8645 25.9538C98.9494 25.835 99.0517 25.7296 99.168 25.6413C99.3218 25.5171 99.4862 25.4066 99.6591 25.3109C99.9125 25.1685 100.182 25.0576 100.463 24.9806C100.854 24.8866 101.251 24.815 101.65 24.7663C102.207 24.6987 102.768 24.6659 103.329 24.6681C105.293 24.6681 106.704 25.0937 107.561 25.9448C108.418 26.796 108.846 28.2097 108.846 30.1858C108.866 31.0385 108.711 31.8863 108.391 32.6768C108.13 33.317 107.701 33.8752 107.15 34.2929C106.652 34.6586 106.097 34.9391 105.507 35.1232C104.907 35.2973 104.284 35.3845 103.659 35.3822C102.947 35.4051 102.236 35.3147 101.552 35.1143V39.5785H101.534ZM101.534 29.9983V32.6768C101.748 32.7421 101.965 32.7928 102.186 32.8286C102.427 32.8286 102.722 32.9001 103.079 32.9268C103.416 32.9584 103.757 32.9189 104.079 32.8108C104.396 32.7083 104.696 32.561 104.971 32.3733C105.279 32.1497 105.513 31.8386 105.641 31.4804C105.824 30.9988 105.911 30.4865 105.9 29.9715C105.91 29.5367 105.828 29.1046 105.659 28.7037C105.535 28.3938 105.346 28.1138 105.105 27.8823C104.863 27.6752 104.576 27.5283 104.266 27.4537C103.974 27.3695 103.675 27.3097 103.373 27.2752C103.076 27.2491 102.778 27.2491 102.48 27.2752L101.847 27.3466L101.498 27.4269C101.498 27.4269 101.516 28.3198 101.534 29.9983Z" fill="white"/>
<path d="M114.391 25.0599C115.408 24.7521 116.471 24.6222 117.533 24.676C118.163 24.6593 118.789 24.7844 119.364 25.042C119.797 25.2258 120.177 25.5142 120.471 25.8813C120.708 26.2017 120.886 26.5614 120.998 26.9438C121.098 27.233 121.167 27.5324 121.203 27.8366C121.212 28.0062 121.212 28.176 121.203 28.3456V35.3097C119.28 35.5656 118.322 34.9704 118.328 33.524V31.4616C118.415 30.294 118.325 29.12 118.06 27.9795C117.864 27.5688 117.266 27.3456 116.274 27.3277C115.632 27.3318 114.994 27.4466 114.391 27.667V33.5687C114.442 33.8632 114.401 34.1664 114.273 34.4366C114.145 34.7068 113.937 34.9307 113.676 35.0776C112.987 35.3355 112.247 35.4273 111.516 35.3454V20.4082C111.781 20.5876 112.089 20.6924 112.408 20.7118C112.783 20.7118 113.105 20.7564 113.364 20.7564C113.504 20.7653 113.64 20.8071 113.761 20.8784C113.882 20.9498 113.985 21.0487 114.06 21.1671C114.298 21.5746 114.404 22.0454 114.364 22.5153V25.0599H114.391Z" fill="white"/>
<path d="M124.4 23.6328C124.118 23.3371 123.961 22.9435 123.963 22.5346C123.961 22.3338 124 22.1347 124.077 21.9492C124.153 21.7636 124.266 21.5953 124.409 21.4543C124.551 21.3098 124.719 21.1951 124.906 21.1167C125.092 21.0384 125.292 20.998 125.494 20.998C125.696 20.998 125.896 21.0384 126.083 21.1167C126.269 21.1951 126.438 21.3098 126.579 21.4543C126.726 21.5926 126.843 21.7602 126.921 21.9462C126.999 22.1323 127.038 22.3327 127.034 22.5346C127.036 22.7375 126.996 22.9385 126.918 23.1256C126.839 23.3128 126.724 23.4822 126.579 23.6239C126.439 23.7681 126.271 23.882 126.085 23.9588C125.899 24.0356 125.7 24.0735 125.499 24.0703C125.089 24.0758 124.694 23.9185 124.4 23.6328ZM126.909 26.6327C126.949 26.16 126.843 25.6866 126.606 25.2756C126.53 25.1572 126.428 25.0583 126.307 24.9869C126.186 24.9156 126.05 24.8738 125.909 24.8649C125.65 24.8649 125.329 24.8649 124.954 24.8203C124.635 24.8067 124.326 24.7047 124.061 24.5256V35.3379C124.79 35.4176 125.528 35.3227 126.213 35.0612C126.476 34.9166 126.687 34.6934 126.817 34.4228C126.946 34.1522 126.988 33.8478 126.936 33.5522V26.6327H126.909Z" fill="white"/>
<path d="M139.435 28.3745V35.3476C139.052 35.3706 138.667 35.3706 138.283 35.3476C137.977 35.3148 137.676 35.2397 137.39 35.1244C137.116 35.0235 136.889 34.8226 136.757 34.5619C136.608 34.2538 136.543 33.912 136.569 33.5709V28.437C136.382 27.4996 135.507 27.1335 133.962 27.3299C133.49 27.3697 133.021 27.4443 132.56 27.5531C132.606 27.8064 132.627 28.0636 132.623 28.321V33.5619C132.648 33.903 132.584 34.2449 132.435 34.553C132.3 34.8121 132.075 35.0123 131.801 35.1155C131.515 35.2307 131.215 35.3059 130.908 35.3387C130.528 35.3661 130.146 35.3661 129.766 35.3387V26.0174C129.766 25.1871 131.096 24.7496 133.766 24.6871C137.524 24.5889 139.417 25.8121 139.435 28.3745Z" fill="white"/>
<path d="M142.918 27.4009C142.921 27.3504 142.921 27.2997 142.918 27.2491C142.902 27.1247 142.902 26.9986 142.918 26.8742C142.926 26.4978 143.011 26.1271 143.168 25.7849C143.257 25.5813 143.387 25.3988 143.552 25.2492C143.743 25.0882 143.96 24.9614 144.194 24.8742C144.508 24.7683 144.837 24.717 145.168 24.7224H145.703C146.045 24.7045 146.388 24.7045 146.73 24.7224L147.784 24.7671C148.13 24.793 148.473 24.8468 148.81 24.9278C149.133 25.0151 149.45 25.1255 149.757 25.2581C150.06 25.3909 150.338 25.5751 150.578 25.8027C150.831 26.0399 151.05 26.3102 151.23 26.6063C151.43 26.9604 151.574 27.3427 151.659 27.7402C151.764 28.2362 151.815 28.7421 151.81 29.2491V31.3741C151.814 31.8561 151.754 32.3365 151.632 32.8026C151.54 33.1695 151.395 33.5213 151.203 33.8472C151.03 34.117 150.813 34.3555 150.56 34.5526C150.346 34.7389 150.105 34.8924 149.846 35.0079C149.6 35.1139 149.342 35.1918 149.078 35.2401L148.391 35.3472H147.828H145.007C144.863 35.3348 144.72 35.3139 144.578 35.2847C144.374 35.2615 144.173 35.2135 143.98 35.1419C143.754 35.0637 143.538 34.9588 143.337 34.8294C143.108 34.691 142.903 34.5161 142.73 34.3115C142.546 34.0823 142.404 33.8224 142.311 33.5437C142.19 33.1995 142.129 32.837 142.132 32.4723C142.12 31.8662 142.21 31.2624 142.4 30.6866C142.553 30.244 142.836 29.8581 143.212 29.5795C143.576 29.3179 143.989 29.1326 144.427 29.0348C144.961 28.9267 145.506 28.8758 146.052 28.883C146.817 28.9242 147.585 28.849 148.328 28.6598C148.73 28.517 148.926 28.2848 148.926 27.9813C148.926 27.6777 148.507 27.2581 147.677 27.0884C146.793 26.9317 145.891 26.8987 144.998 26.9902C144.288 27.0242 143.587 27.1626 142.918 27.4009ZM148.989 30.2937L148.766 30.5259C148.568 30.6708 148.352 30.7879 148.123 30.8741C147.797 31.0188 147.444 31.0948 147.087 31.0973C146.572 31.0792 146.058 31.1548 145.569 31.3205C145.177 31.4812 144.989 31.6955 144.989 31.9723C144.982 32.124 145.017 32.2747 145.092 32.4073C145.166 32.5399 145.276 32.649 145.409 32.7223C145.941 32.9346 146.516 33.0202 147.087 32.9723H147.882C148.049 32.9695 148.215 32.9333 148.368 32.8658C148.521 32.7984 148.66 32.701 148.775 32.5794C148.863 32.429 148.917 32.2616 148.935 32.0883C148.978 31.8523 149.005 31.6137 149.016 31.3741C148.98 31.133 148.989 30.7759 148.989 30.2937Z" fill="white"/>
</svg>
