<svg width="174" height="44" viewBox="0 0 174 44" fill="none" xmlns="http://www.w3.org/2000/svg">
<path d="M54.1871 23.8796H58.8697L60.3985 20.2017H54.1871V17.6508H61.4818L63.133 13.7195H49.6094V30.5104H63.1854V26.5529H54.1871V23.8796Z" fill="white"/>
<path d="M107.477 13.6838H100.305V30.5096H104.987V25.696H107.302C109.18 25.8041 111.036 25.2474 112.544 24.1235C113.204 23.5895 113.729 22.9063 114.073 22.1302C114.418 21.3541 114.574 20.5073 114.527 19.6593C114.568 18.8361 114.42 18.0145 114.095 17.2574C113.769 16.5002 113.275 15.8276 112.649 15.2912C111.181 14.1385 109.34 13.5664 107.477 13.6838ZM109.032 21.4502C108.485 21.8433 107.818 22.0347 107.145 21.9919H104.944V17.5801H107.11C107.813 17.545 108.508 17.7448 109.085 18.1479C109.307 18.3442 109.486 18.5854 109.609 18.8556C109.733 19.1296 109.793 19.4284 109.783 19.7292C109.809 20.051 109.758 20.3743 109.635 20.6727C109.512 20.9674 109.324 21.2303 109.085 21.4415L109.032 21.4502Z" fill="white"/>
<path d="M120.67 13.6824H116.031V30.5082H126.27L128.017 26.4197H120.67V13.6824Z" fill="white"/>
<path d="M135.868 13.5615L129.893 27.8015L128.766 30.5097H133.64L134.82 27.5044H141.267L142.481 30.5097H147.444L140.324 13.5615H135.868ZM136.183 23.8789L138.07 19.1614L139.93 23.8789H136.183Z" fill="white"/>
<path d="M156.81 13.6834L153.316 19.7987L149.882 13.6834H144.641L150.992 24.1668V30.5093H155.648V24.1406L161.999 13.6572L156.81 13.6834Z" fill="white"/>
<path d="M76.8396 13.6824L73.0481 24.3318L69.3003 13.6824H64.0586L70.8379 30.6305H75.1273L81.924 13.6824H76.8396Z" fill="white"/>
<path d="M89.7524 13.3862C88.0336 13.3862 86.3542 13.9004 84.93 14.8626C83.5006 15.8261 82.3881 17.1908 81.7326 18.7852C81.069 20.3803 80.8933 22.1363 81.2276 23.8312C81.562 25.5262 82.3913 27.0839 83.6109 28.3076C84.5167 29.2192 85.6142 29.9178 86.8236 30.3525C88.033 30.7873 89.3241 30.9473 90.603 30.821C91.882 30.6947 93.1168 30.2852 94.2178 29.6223C95.3188 28.9594 96.2584 28.0597 96.9685 26.9884C98.0862 25.3049 98.5896 23.2875 98.3939 21.2762C98.1982 19.2649 97.3153 17.3824 95.8939 15.9459C95.0887 15.1365 94.1319 14.4938 93.078 14.0545C92.0242 13.6153 90.8941 13.3882 89.7524 13.3862ZM89.7524 26.7176C88.6833 26.7292 87.6434 26.3691 86.8105 25.6989C85.9776 25.0286 85.4033 24.0899 85.1859 23.0431C84.9686 21.9963 85.1215 20.9065 85.6188 19.96C86.116 19.0136 86.9265 18.2692 87.9118 17.8542C88.8971 17.4392 89.9959 17.3793 91.0204 17.6849C92.045 17.9904 92.9316 18.6423 93.5286 19.5292C94.1257 20.416 94.3962 21.4828 94.2938 22.547C94.1914 23.6112 93.7225 24.6068 92.9673 25.3635C92.5462 25.7875 92.0453 26.124 91.4935 26.3534C90.9417 26.5828 90.35 26.7007 89.7524 26.7001V26.7176Z" fill="white"/>
<path d="M12 31.2703V37.9622H30.8614L33.7094 31.2703H12Z" fill="#0099FA"/>
<path d="M12 23.1708V29.9675L35.6488 26.6565L38.7239 19.4055L12 23.1708Z" fill="#0099FA"/>
<path d="M12 14.8198V21.8088L40.8818 14.3656L44.3238 6.27588L12 14.8198Z" fill="#0099FA"/>
<path d="M29.4048 27.0404C29.6093 27.0066 29.795 26.9014 29.929 26.7433C30.0644 26.5851 30.1387 26.3837 30.1387 26.1755C30.1387 25.9673 30.0644 25.7659 29.929 25.6076C29.7973 25.4484 29.6099 25.3453 29.4048 25.3193C29.203 25.3474 29.019 25.4503 28.8894 25.6076C28.7541 25.7659 28.6797 25.9673 28.6797 26.1755C28.6797 26.3837 28.7541 26.5851 28.8894 26.7433C29.0212 26.8996 29.2036 27.0047 29.4048 27.0404Z" fill="#0099FA"/>
</svg>
