<svg width="160" height="60" viewBox="0 0 160 60" fill="none" xmlns="http://www.w3.org/2000/svg">
<path d="M25.3127 9.49219V29.1848L18.0584 28.8984V25.7564H14.7132V28.769L7.45898 28.4825V9.49219H14.7132V18.493H18.0584V9.49219H25.3127Z" fill="white"/>
<path d="M42.353 9.49219H33.4909L28.6855 29.3142L46.7333 30.0258L42.353 9.49219ZM36.1338 26.967L37.8249 16.4969L39.2203 26.967H36.1338Z" fill="white"/>
<path d="M56.5826 23.7518C56.5826 23.7518 56.6473 29.8324 60.9998 29.5921C61.6865 29.6394 62.373 29.4983 62.9854 29.184C63.5977 28.8697 64.1126 28.3941 64.4745 27.8086V30.7196L50.5482 30.1743C49.0758 26.184 48.809 21.8489 49.7812 17.7082C49.7812 17.7082 53.0895 6.01827 64.4745 9.71469V17.4956C64.4745 17.4956 62.6263 14.8897 59.854 15.9154C59.8262 15.9062 56.176 16.8395 56.5826 23.7518Z" fill="white"/>
<path d="M81.2015 22.4666L85.4709 31.5413L77.8747 31.2456L75.2041 24.0283V31.1439L68.2363 30.8667V9.49219H75.2041V20.5722L79.2516 9.49219H87.0049L81.2015 22.4666Z" fill="white"/>
<path d="M102.179 32.1966L89.057 31.6791V26.9015C89.9326 28.129 91.1103 29.1094 92.4762 29.7478C92.937 29.9661 93.449 30.0532 93.9561 29.9994C94.4631 29.9456 94.9455 29.753 95.3502 29.4428C97.1984 27.9827 94.5 25.922 93.4003 25.2012C92.9891 24.944 92.5997 24.6534 92.236 24.3325C85.0649 18.0024 92.236 10.665 92.236 10.665C96.8565 7.14419 102.401 10.3416 102.401 10.3416V18.5476C101.867 17.6038 101.104 16.8094 100.183 16.2374C99.8103 15.9984 99.3935 15.8362 98.9572 15.76C98.5209 15.6838 98.0738 15.6953 97.642 15.7938C97.4475 15.8115 97.2595 15.8731 97.0922 15.9738C96.9248 16.0746 96.7825 16.2119 96.6758 16.3755C96.5691 16.5391 96.5008 16.7247 96.4761 16.9184C96.4514 17.1122 96.4708 17.309 96.533 17.4941C96.677 18.0911 97.044 18.6102 97.5588 18.945C98.5995 19.6515 99.585 20.4362 100.507 21.2922C101.991 22.6751 102.94 24.537 103.187 26.5504C103.469 28.4918 103.115 30.4725 102.179 32.1966Z" fill="white"/>
<path d="M123.941 31.8832L119.191 9.49219H110.32L105.496 29.4066L105.043 32.2806L124.19 33.0383L123.941 31.8832ZM112.963 26.967L114.663 16.4969L116.04 26.967H112.963Z" fill="white"/>
<path d="M155 9.49219L149.862 34.0733L142.109 33.7684L139.872 19.99L138.375 33.5189L138.366 33.6205L130.132 33.2971L124.689 9.49219H132.249L134.337 26.0983L136.684 9.49219H143.135L145.546 26.0983L147.829 9.49219H155Z" fill="white"/>
<path d="M12.3004 29.5287V36.8106H5V29.2422L12.3004 29.5287Z" fill="white"/>
<path d="M22.6969 29.9237V36.8083H15.3965V29.6465L22.6969 29.9237Z" fill="white"/>
<path d="M45.4854 36.8085H38.0556L37.3995 33.3523H32.5757L32.0212 36.8085H24.6191L26.2086 30.0625L44.3118 30.7648L45.4854 36.8085Z" fill="white"/>
<path d="M62.0451 31.4573V36.3181C52.4622 39.7188 49.0153 33.1669 48.1836 30.9121L62.0451 31.4573Z" fill="white"/>
<path d="M72.8846 31.8744V36.8091H65.5195V31.5879L72.8846 31.8744Z" fill="white"/>
<path d="M85.2488 36.8091H77.1352L75.25 31.9668L83.188 32.2718L85.2488 36.8091Z" fill="white"/>
<path d="M99.6835 32.9184C95.83 39.9786 86.7461 36.2544 86.7461 36.2544V32.4102L99.6835 32.9184Z" fill="white"/>
<path d="M109.673 33.2987L109.063 36.8103H101.199L102.271 33.0215L109.673 33.2987Z" fill="white"/>
<path d="M122.546 36.8087H114.682L114.1 33.4727L121.686 33.7684L122.546 36.8087Z" fill="white"/>
<path d="M135.771 34.3122L135.42 36.8073H128.184L127.574 33.998L135.771 34.3122Z" fill="white"/>
<path d="M147.533 34.7751L147.09 36.8082H139.854L139.521 34.4609L147.533 34.7751Z" fill="white"/>
<path d="M12.7814 45.2181V47.0663H16.0065C15.8688 47.6868 15.5136 48.2376 15.0051 48.6189C14.4966 49.0003 13.8684 49.1871 13.2342 49.1455C12.8178 49.1586 12.4034 49.0836 12.0181 48.9254C11.6327 48.7672 11.2852 48.5294 10.9981 48.2275C10.7111 47.9257 10.4911 47.5666 10.3525 47.1738C10.2139 46.7809 10.1598 46.3633 10.1939 45.9481C10.1611 45.5341 10.2161 45.1178 10.3554 44.7266C10.4947 44.3354 10.7151 43.978 11.0022 43.6778C11.2892 43.3777 11.6364 43.1416 12.0211 42.985C12.4057 42.8284 12.8191 42.7549 13.2342 42.7692C13.7724 42.7268 14.3107 42.849 14.7778 43.1197C15.2449 43.3904 15.6186 43.7967 15.8494 44.2847L15.9603 44.5158H17.8824L17.6976 43.9705C17.3862 43.0506 16.7843 42.2567 15.9827 41.7084C15.181 41.16 14.2229 40.887 13.2527 40.9302C12.589 40.9082 11.928 41.0231 11.3107 41.2678C10.6934 41.5125 10.1332 41.8818 9.66498 42.3526C9.19676 42.8234 8.83058 43.3857 8.58928 44.0043C8.34798 44.6229 8.23675 45.2846 8.2625 45.9481C8.22745 46.6141 8.33139 47.2801 8.56772 47.9037C8.80406 48.5273 9.16761 49.0949 9.63524 49.5703C10.1029 50.0458 10.6644 50.4187 11.284 50.6653C11.9036 50.912 12.5677 51.027 13.2342 51.003C16.1728 51.003 18.0026 48.9884 18.0118 45.7448V45.2181H12.7814Z" fill="white"/>
<path d="M146.535 45.2181V47.0663H149.751C149.615 47.6877 149.26 48.2396 148.752 48.6213C148.243 49.003 147.613 49.189 146.979 49.1455C146.562 49.16 146.146 49.0859 145.76 48.9283C145.373 48.7707 145.025 48.5331 144.737 48.2311C144.449 47.9291 144.228 47.5695 144.089 47.176C143.949 46.7825 143.895 46.3641 143.929 45.9481C143.896 45.5333 143.952 45.1162 144.092 44.7243C144.231 44.3324 144.453 43.9746 144.741 43.6743C145.029 43.374 145.377 43.1381 145.763 42.9821C146.149 42.8261 146.563 42.7535 146.979 42.7692C147.516 42.7287 148.052 42.8519 148.517 43.1224C148.982 43.393 149.355 43.7982 149.585 44.2847L149.696 44.5158H151.618L151.433 43.9705C151.122 43.0506 150.52 42.2567 149.718 41.7084C148.916 41.16 147.958 40.887 146.988 40.9302C146.325 40.9094 145.665 41.0253 145.049 41.2706C144.433 41.5159 143.874 41.8854 143.406 42.3561C142.939 42.8268 142.574 43.3886 142.333 44.0065C142.092 44.6245 141.981 45.2854 142.007 45.9481C141.971 46.6144 142.074 47.281 142.309 47.9053C142.545 48.5295 142.909 49.0977 143.377 49.5735C143.845 50.0492 144.407 50.4221 145.027 50.6682C145.647 50.9144 146.312 51.0284 146.979 51.003C149.908 51.003 151.738 48.9884 151.756 45.7448V45.2181H146.535Z" fill="white"/>
<path d="M40.9201 41.1152H39.2567L35.4863 50.9569H37.5563L38.4804 48.4249H41.724L42.6481 50.9569H44.7089L40.9201 41.1152ZM40.0699 44.0169L41.0402 46.6414H39.1088L40.0699 44.0169Z" fill="white"/>
<path d="M73.7717 41.4473H71.6832L70.0383 45.9199C69.835 46.4929 69.6594 47.0104 69.5023 47.5094C69.3545 47.0196 69.1881 46.5021 68.9941 45.9199L67.4231 41.4473H65.2792L64.623 50.9563H66.4713L66.73 46.844C66.73 46.4005 66.7854 45.9661 66.8039 45.541C66.8963 45.846 66.998 46.1602 67.1181 46.4651L68.6244 50.8824H70.0568L71.6924 46.4005L72.0713 45.3193C72.0713 45.7813 72.0713 46.2434 72.1452 46.7331L72.3763 50.9378H74.3169L73.7717 41.4473Z" fill="white"/>
<path d="M87.4203 41.1152H85.5352V50.9569H87.4203V41.1152Z" fill="white"/>
<path d="M119.71 41.1152V47.6764L115.515 41.1152H113.5V50.9477H115.385V44.3404L119.655 50.9477H121.595V41.1152H119.71Z" fill="white"/>
</svg>
