<svg width="160" height="60" viewBox="0 0 160 60" fill="none" xmlns="http://www.w3.org/2000/svg">
<path d="M15.1975 19.3535C13.5309 19.4188 11.9278 20.01 10.6179 21.0424C9.30802 22.0749 8.35865 23.4956 7.9059 25.1008L5.2209 33.8753C4.98136 34.7026 4.93591 35.5739 5.0881 36.4216C5.24028 37.2693 5.586 38.0704 6.09835 38.7627C6.61216 39.3944 7.26547 39.8982 8.00694 40.2347C8.74841 40.5712 9.55782 40.7311 10.3715 40.7019H73.7146C73.6582 39.375 73.8303 38.0482 74.2236 36.7797L79.0759 20.9856C79.2504 20.4271 79.4645 19.8817 79.7164 19.3535H15.1975Z" fill="#008AC5"/>
<path d="M145.298 19.3532C145.38 20.645 145.229 21.9411 144.85 23.1789L140.2 38.6483C139.964 39.3586 139.671 40.0482 139.322 40.7103H143.938C147.246 40.7103 151.335 38.078 152.203 34.7788L154.765 26.3728C155.016 25.531 155.067 24.6424 154.915 23.7773C154.762 22.9123 154.411 22.0946 153.888 21.3889C153.362 20.7353 152.693 20.2116 151.932 19.8585C151.171 19.5055 150.339 19.3326 149.501 19.3532H145.298Z" fill="#008AC5"/>
<path d="M148.578 17.0817C148.507 14.8386 147.771 12.6672 146.464 10.8431C144.367 7.95625 140.471 6.30664 136.566 6.30664H95.7997C89.2891 6.30664 82.638 10.8957 79.7512 17.073C79.4428 17.7241 79.1789 18.3954 78.9615 19.0823L73.0299 38.3336C72.5407 39.8752 72.3269 41.491 72.3981 43.1069C72.4677 45.3151 73.1914 47.4528 74.4777 49.249C75.5623 50.6721 76.9697 51.8169 78.5838 52.5888C80.198 53.3608 81.9725 53.7379 83.7611 53.6889H122.123H124.633C131.126 53.6889 138.207 49.2315 141.304 43.1595C141.718 42.341 142.065 41.49 142.34 40.6149L147.955 21.9516C148.444 20.3767 148.655 18.7289 148.578 17.0817Z" fill="black"/>
<path d="M111.672 20.2916H93.0089C92.9737 20.2902 92.9389 20.3007 92.9103 20.3214C92.8817 20.3421 92.8608 20.3717 92.851 20.4057L86.9107 39.499C86.9023 39.524 86.9001 39.5507 86.904 39.5768C86.908 39.6029 86.9181 39.6276 86.9336 39.649C86.949 39.6705 86.9693 39.6879 86.9927 39.7C87.0162 39.712 87.0422 39.7183 87.0686 39.7184H95.966C96.002 39.7177 96.0369 39.7054 96.0654 39.6833C96.0939 39.6611 96.1144 39.6303 96.1239 39.5955L97.7559 34.1992C97.7647 34.1746 97.7672 34.1483 97.7633 34.1225C97.7594 34.0968 97.7491 34.0724 97.7335 34.0515C97.7178 34.0307 97.6973 34.014 97.6737 34.003C97.65 33.9921 97.624 33.9871 97.598 33.9886H93.6758C93.6494 33.9886 93.6234 33.9823 93.5999 33.9702C93.5765 33.9582 93.5562 33.9407 93.5408 33.9193C93.5253 33.8979 93.5152 33.8731 93.5112 33.847C93.5073 33.8209 93.5095 33.7943 93.5179 33.7692L95.9309 26.2319C95.9419 26.1988 95.9631 26.1699 95.9914 26.1494C96.0198 26.129 96.0538 26.1179 96.0888 26.1179H109.751C109.777 26.1179 109.803 26.1242 109.827 26.1363C109.85 26.1483 109.87 26.1658 109.886 26.1872C109.901 26.2086 109.911 26.2334 109.915 26.2595C109.919 26.2855 109.917 26.3122 109.909 26.3372L105.855 39.6131C104.17 44.9918 98.8966 49.3878 93.5705 49.3878H83.8133C78.4608 49.3878 75.4599 45.0006 77.1446 39.6131L83.2868 20.0459C84.2138 17.3919 85.9162 15.0772 88.1737 13.4017C90.4311 11.7262 93.1396 10.7671 95.9484 10.6484H114.629C114.656 10.6485 114.682 10.6548 114.705 10.6668C114.729 10.6789 114.749 10.6963 114.764 10.7177C114.78 10.7392 114.79 10.7639 114.794 10.79C114.798 10.8161 114.796 10.8428 114.787 10.8678L111.83 20.1775C111.817 20.2094 111.795 20.237 111.768 20.2572C111.74 20.2773 111.707 20.2893 111.672 20.2916Z" fill="#EF3A38"/>
<path d="M128.267 39.7368H119.142C119.115 39.7368 119.089 39.7305 119.066 39.7184C119.042 39.7064 119.022 39.6889 119.007 39.6675C118.991 39.6461 118.981 39.6213 118.977 39.5953C118.973 39.5692 118.975 39.5425 118.984 39.5175L124.933 20.3803C124.944 20.3471 124.965 20.3183 124.993 20.2978C125.022 20.2773 125.056 20.2663 125.091 20.2662H134.181C134.208 20.2663 134.234 20.2726 134.257 20.2846C134.28 20.2967 134.301 20.3141 134.316 20.3355C134.332 20.3569 134.342 20.3817 134.346 20.4078C134.35 20.4339 134.347 20.4605 134.339 20.4856L128.451 39.614C128.448 39.6346 128.441 39.6544 128.43 39.6721C128.419 39.6897 128.404 39.7048 128.387 39.7164C128.369 39.7279 128.35 39.7357 128.329 39.7393C128.308 39.7428 128.287 39.742 128.267 39.7368ZM137.164 10.623H128.206C125.312 10.7227 122.516 11.6989 120.189 13.4225C117.863 15.146 116.114 17.5357 115.176 20.275L109.349 39.3157C107.594 44.8436 110.587 49.38 116.097 49.38H125.047C130.548 49.38 136.62 44.8173 138.349 39.2893L144.105 20.3189C145.816 14.7471 142.666 10.623 137.164 10.623Z" fill="#EF3A38"/>
<path d="M51.5073 36.3073C51.4994 36.3359 51.4822 36.3609 51.4583 36.3784C51.4344 36.396 51.4053 36.4049 51.3757 36.4038H48.4626C48.4416 36.4036 48.421 36.3984 48.4025 36.3887C48.3839 36.3789 48.368 36.3649 48.356 36.3477C48.344 36.3305 48.3362 36.3108 48.3334 36.29C48.3306 36.2692 48.3327 36.2481 48.3397 36.2283L49.2172 33.3942C49.2209 33.3739 49.2204 33.3531 49.2157 33.333C49.211 33.313 49.2022 33.2941 49.1898 33.2776C49.1775 33.2611 49.1618 33.2474 49.1439 33.2372C49.1259 33.2271 49.1061 33.2208 49.0856 33.2187C48.7116 33.2053 48.3465 33.1007 48.0221 32.9142C47.6977 32.7277 47.4237 32.4647 47.224 32.1483C47.0242 31.8318 46.9048 31.4713 46.876 31.0982C46.8472 30.7251 46.9099 30.3506 47.0587 30.0072L48.9715 23.7335C48.979 23.7064 48.9949 23.6824 49.0171 23.665C49.0392 23.6476 49.0662 23.6378 49.0943 23.6369H51.9285C51.9502 23.6357 51.9718 23.6398 51.9915 23.649C52.0112 23.6581 52.0284 23.672 52.0414 23.6894C52.0544 23.7067 52.063 23.7271 52.0662 23.7485C52.0695 23.77 52.0674 23.792 52.0601 23.8124C51.7969 24.6899 50.3754 29.3316 50.1736 30.0423H53.3763C53.5869 29.3491 55.1312 24.4091 55.3067 23.7335C55.3146 23.7049 55.3318 23.6798 55.3557 23.6623C55.3796 23.6448 55.4087 23.6359 55.4383 23.6369H58.2812C58.3033 23.6372 58.325 23.6427 58.3445 23.6529C58.3641 23.6631 58.3809 23.6778 58.3937 23.6957C58.4066 23.7137 58.415 23.7344 58.4183 23.7562C58.4216 23.778 58.4198 23.8003 58.4129 23.8212L56.5176 30.0072C56.2317 30.8716 55.7003 31.634 54.9881 32.2012C54.276 32.7684 53.414 33.1159 52.5076 33.2011C52.4784 33.2015 52.4499 33.211 52.4263 33.2283C52.4027 33.2456 52.3851 33.2699 52.376 33.2977L51.5073 36.3073Z" fill="white"/>
<path d="M66.9936 26.8125C66.0625 26.874 65.1702 27.209 64.4287 27.7757C63.6873 28.3423 63.1296 29.1153 62.8258 29.9976L60.9392 36.2539C60.932 36.2743 60.9299 36.2963 60.9331 36.3177C60.9364 36.3392 60.9449 36.3595 60.958 36.3769C60.971 36.3943 60.9881 36.4082 61.0078 36.4173C61.0275 36.4265 61.0492 36.4306 61.0709 36.4294H63.9577C63.9858 36.4285 64.0129 36.4187 64.035 36.4013C64.0571 36.3839 64.073 36.3599 64.0805 36.3328C64.2911 35.666 65.6862 31.1296 66.0285 30.0678H69.161C68.731 31.4103 67.5377 35.4203 67.2744 36.2626C67.2674 36.2824 67.2653 36.3035 67.2681 36.3243C67.2709 36.345 67.2787 36.3648 67.2907 36.382C67.3027 36.3992 67.3186 36.4132 67.3372 36.423C67.3557 36.4327 67.3763 36.4379 67.3973 36.4381H70.3543C70.3839 36.4392 70.413 36.4302 70.4369 36.4127C70.4607 36.3952 70.478 36.3702 70.4859 36.3416L72.3987 30.0064C72.934 28.3129 72.039 26.9266 70.4069 26.83L66.9936 26.8125Z" fill="white"/>
<path d="M42.0745 30.0499H38.8893L39.8721 26.7858H43.0747L42.0745 30.0499ZM44.0838 23.6445H40.8021C39.871 23.706 38.9787 24.0411 38.2372 24.6077C37.4958 25.1744 36.9381 25.9473 36.6343 26.8297L33.7826 36.2096C33.7758 36.2299 33.7738 36.2514 33.7766 36.2726C33.7795 36.2937 33.7871 36.314 33.799 36.3317C33.8108 36.3495 33.8266 36.3643 33.845 36.3751C33.8634 36.3859 33.8841 36.3923 33.9054 36.3939H36.7922C36.8203 36.393 36.8474 36.3832 36.8695 36.3658C36.8916 36.3484 36.9076 36.3245 36.915 36.2974L38.0996 32.5682C38.1086 32.5427 38.1252 32.5207 38.1472 32.505C38.1692 32.4893 38.1954 32.4807 38.2224 32.4805H41.1707C41.1917 32.4811 41.2124 32.4865 41.2311 32.4962C41.2498 32.5059 41.2661 32.5197 41.2787 32.5365C41.2913 32.5534 41.3 32.5729 41.3041 32.5936C41.3082 32.6142 41.3076 32.6355 41.3023 32.6559L40.1879 36.1657C40.181 36.1867 40.1792 36.209 40.1825 36.2308C40.1858 36.2526 40.1942 36.2733 40.207 36.2912C40.2199 36.3092 40.2367 36.3238 40.2563 36.3341C40.2758 36.3443 40.2975 36.3497 40.3196 36.35H43.2239C43.2528 36.3526 43.2816 36.344 43.3045 36.3261C43.3273 36.3081 43.3424 36.2822 43.3468 36.2535L46.2423 26.7858C46.8127 25.0835 45.8299 23.6445 44.0838 23.6445Z" fill="white"/>
<path d="M19.6732 30.0588H16.4968L17.4796 26.8034H20.6823L19.6732 30.0588ZM21.6562 23.6446H15.3298C15.3002 23.6435 15.2711 23.6525 15.2472 23.67C15.2233 23.6875 15.2061 23.7126 15.1982 23.7411L11.3813 36.2097C11.3761 36.2306 11.3756 36.2523 11.3796 36.2735C11.3837 36.2946 11.3922 36.3146 11.4047 36.3321C11.4172 36.3496 11.4334 36.3642 11.452 36.3749C11.4707 36.3855 11.4915 36.3921 11.5129 36.394H14.3997C14.4281 36.3905 14.4551 36.3798 14.4781 36.3629C14.5012 36.346 14.5195 36.3235 14.5313 36.2974L15.4614 33.2966C15.4706 33.2688 15.4882 33.2445 15.5118 33.2272C15.5354 33.2099 15.5638 33.2004 15.593 33.2H18.6641C19.5949 33.1415 20.4875 32.8086 21.2293 32.2433C21.971 31.678 22.5287 30.9056 22.832 30.0237L23.8498 26.8385C24.3763 25.0836 23.4023 23.6446 21.6562 23.6446Z" fill="white"/>
<path d="M62.8436 27.3913H59.1934L60.3253 23.6621H63.9842L62.8436 27.3913Z" fill="white"/>
<path d="M22.4551 36.43L26.3773 23.7333C26.3852 23.7048 26.4024 23.6797 26.4263 23.6622C26.4502 23.6447 26.4793 23.6357 26.5089 23.6368H29.4045C29.4255 23.6374 29.4462 23.6428 29.4649 23.6525C29.4836 23.6622 29.4999 23.676 29.5125 23.6929C29.5251 23.7098 29.5338 23.7292 29.5379 23.7499C29.542 23.7706 29.5414 23.7919 29.5361 23.8123L26.737 33.0694C26.7316 33.0905 26.7311 33.1126 26.7357 33.1339C26.7402 33.1553 26.7497 33.1752 26.7633 33.1923C26.7769 33.2093 26.7944 33.2229 26.8142 33.232C26.834 33.2412 26.8556 33.2456 26.8774 33.2449H29.6589C29.6882 33.2445 29.7166 33.235 29.7402 33.2177C29.7638 33.2004 29.7814 33.1762 29.7906 33.1484L30.7382 30.1563C30.7473 30.1285 30.7649 30.1042 30.7885 30.0869C30.8121 30.0696 30.8406 30.0601 30.8698 30.0597H33.7654C33.7875 30.06 33.8091 30.0655 33.8287 30.0757C33.8482 30.0859 33.8651 30.1006 33.8779 30.1185C33.8907 30.1365 33.8991 30.1572 33.9025 30.179C33.9058 30.2008 33.9039 30.2231 33.897 30.244L31.993 36.3861C31.9848 36.4163 31.9662 36.4425 31.9405 36.4602C31.9148 36.4779 31.8836 36.4858 31.8526 36.4827H22.4551V36.43Z" fill="white"/>
</svg>
