<svg id="Layer_1" data-name="Layer 1" xmlns="http://www.w3.org/2000/svg" width="123.8" height="36" viewBox="0 0 123.8 36">
  <defs>
    <style>
      .cls-1 {
        fill: #f08f22;
      }

      .cls-2 {
        fill: #fff;
      }
    </style>
  </defs>
  <g>
    <path id="Path_1346" data-name="Path 1346" class="cls-1" d="M110.2,4c-5.1-1.2-4.5,5.1,1,6.5S115.6,5.2,110.2,4Z"/>
    <path id="Path_1347" data-name="Path 1347" class="cls-1" d="M105.1,0C94.8,0,86.4,8,86.4,18s8.4,18,18.7,18,18.7-8.1,18.7-18h0A18.5,18.5,0,0,0,105.1,0Zm0,34.7c-9.6,0-17.3-7.5-17.3-16.7S95.5,1.3,105.1,1.3,122.4,8.8,122.4,18h0C122.4,27.2,114.7,34.7,105.1,34.7ZM85,0a6.7,6.7,0,0,0,1.8,6.2A29.6,29.6,0,0,0,78.5,3,37.5,37.5,0,0,0,85,9.4a6.2,6.2,0,0,0-6.1,1,9.9,9.9,0,0,1,7.2,1.4,15.5,15.5,0,0,1,3.3-5.7A10.9,10.9,0,0,1,85,0Z"/>
    <path id="Path_1348" data-name="Path 1348" class="cls-2" d="M1.7,20.8V25H0V14.2H3.6a3.7,3.7,0,0,1,2.8.9,3.4,3.4,0,0,1,0,4.8,4.7,4.7,0,0,1-2.8.9Zm3.9-3.3a2.4,2.4,0,0,0-.5-1.4,2.2,2.2,0,0,0-1.7-.5H1.7v3.8H3.4C4.9,19.4,5.6,18.8,5.6,17.5Zm9,7.5-2.7-4.3H10.6V25H8.9V14.2h3.8a3.7,3.7,0,0,1,2.8.9,3,3,0,0,1,.9,2.4,4,4,0,0,1-.7,2.1,3.8,3.8,0,0,1-2,1L16.5,25Zm-4-5.6h2q2.1,0,2.1-1.8a1.7,1.7,0,0,0-.6-1.4,1.7,1.7,0,0,0-1.5-.5h-2Zm13.8,3.2H19.9L19.1,25H17.2l4-10.6h1.9L27,25H25.2Zm-.5-1.3-1.7-5-1.8,5Zm11.9-6.2a3.5,3.5,0,0,1,1.7,2.5H35.7a2.4,2.4,0,0,0-1.2-1.4,3.2,3.2,0,0,0-1.9-.5,4.1,4.1,0,0,0-1.8.5,3,3,0,0,0-1.2,1.3,6.5,6.5,0,0,0-.5,2.1,5.4,5.4,0,0,0,.5,2.1,3.5,3.5,0,0,0,1.3,1.4,4.3,4.3,0,0,0,1.9.4,2.7,2.7,0,0,0,2.3-.8,3.7,3.7,0,0,0,1.2-2.3h-4V19.1h5.4v1.7a6.5,6.5,0,0,1-.8,2.2,6.5,6.5,0,0,1-1.8,1.5,5.1,5.1,0,0,1-2.5.6,6.8,6.8,0,0,1-2.7-.7,6.1,6.1,0,0,1-1.9-2,6.4,6.4,0,0,1,0-5.7,5,5,0,0,1,1.9-1.9,5.4,5.4,0,0,1,2.7-.7A4.6,4.6,0,0,1,35.8,15.1ZM50,14.4V25H48.3V17l-3.1,8H43.7l-3.1-8v8H38.9V14.4H41l3.5,8.4,3.4-8.4Zm8.6,8.2H54L53.2,25H51.3l4-10.6h2L61.2,25H59.4Zm-.5-1.3-1.8-5-1.8,5Zm10.5-7.1v1.4H65.7V25H63.9V15.6h-3V14.2Zm2.7,0V25H69.5V14.2Zm9.8.9a5,5,0,0,1,1.8,2.7H81a2.3,2.3,0,0,0-1.2-1.5,3.6,3.6,0,0,0-2-.6,3.4,3.4,0,0,0-1.7.5,3,3,0,0,0-1.2,1.3,4.9,4.9,0,0,0,0,4.1A5.3,5.3,0,0,0,76.1,23a4.8,4.8,0,0,0,1.7.5,4.7,4.7,0,0,0,2-.6A3.1,3.1,0,0,0,81,21.3h1.9a5.7,5.7,0,0,1-1.8,2.8,6.4,6.4,0,0,1-3.3,1,6.8,6.8,0,0,1-2.7-.7,5.8,5.8,0,0,1-1.8-2,6.4,6.4,0,0,1,0-5.7,4.7,4.7,0,0,1,1.8-1.9A5.9,5.9,0,0,1,81.1,15.1Zm11.1,5.7v4.3H90.5v-11h3.7A3.7,3.7,0,0,1,97,15a3.6,3.6,0,0,1,0,4.9,4.1,4.1,0,0,1-2.8.9Zm4-3.4a2.4,2.4,0,0,0-.5-1.4,2.6,2.6,0,0,0-1.7-.5H92.2v3.9H94c1.5,0,2.2-.6,2.2-2Zm4.2,6.2h3.7v1.5H98.5v-11h1.9Zm11.6-1h-4.6l-.8,2.5h-2l4.1-10.8h2l4,10.8h-1.9Zm-.5-1.3-1.8-5.1-1.8,5.1Zm8.9-7.2-3.6,7v4H115v-4l-3.6-7h2l2.6,5.1,2.5-5.1Z"/>
  </g>
</svg>
