<svg width="174" height="32" viewBox="0 0 174 32" fill="none" xmlns="http://www.w3.org/2000/svg">
<rect width="174" height="31.4898" transform="translate(0 -0.000976562)" fill="#010101"/>
<path d="M31.5938 5.8584L31.6025 5.85938L31.6104 5.86133C31.8895 5.9284 32.1446 6.07069 32.3486 6.27051L32.4336 6.35938L32.4385 6.36523V6.36621C32.7785 6.80188 32.9646 7.33797 32.9668 7.89062L32.9639 8.16602C32.9538 8.43962 32.9222 8.71203 32.8721 8.98145L32.873 8.98242L32.4775 11.4727L31.5586 17.3857C31.4939 17.9613 31.3649 18.5278 31.1758 19.0752L31.1768 19.0762C31.0034 19.6522 30.6343 20.1502 30.1328 20.4824L30.127 20.4863C29.9164 20.6118 29.6782 20.6851 29.4336 20.7002H23.9072C23.6927 20.6976 23.481 20.6483 23.2871 20.5566C23.0933 20.465 22.9212 20.333 22.7832 20.1689V20.168C22.1928 19.4945 22.0974 18.3367 22.4014 16.7891L23.3838 10.9482L23.6689 9.15527C23.7074 8.80992 23.7696 8.46757 23.8555 8.13086C23.9064 7.90686 23.9727 7.68664 24.0537 7.47168C24.2285 6.903 24.5915 6.41032 25.084 6.07617L25.0938 6.07031C25.3074 5.94687 25.5468 5.87483 25.793 5.8584L25.8027 5.85742H31.3174C31.3606 5.85286 31.4039 5.8496 31.4473 5.84961L31.5938 5.8584ZM25.832 6.2959C25.6639 6.30762 25.501 6.35995 25.3574 6.44824C24.9523 6.71317 24.6508 7.10932 24.5029 7.57031L24.499 7.5791C24.4236 7.77047 24.3615 7.9672 24.3125 8.16699L24.3115 8.17188C24.2942 8.23362 24.2796 8.29621 24.2686 8.35938L24.2666 8.36719C24.2056 8.63402 24.1607 8.90457 24.1318 9.17676L24.1309 9.18457L23.8184 11.1328V11.1338L23.5703 12.6689L22.8896 16.8242L22.8887 16.8291C22.7434 17.5554 22.6975 18.1738 22.7461 18.6748C22.7948 19.1765 22.9373 19.5493 23.1572 19.7979L23.1611 19.8018L23.2383 19.8857C23.3203 19.9648 23.4156 20.0293 23.5195 20.0771C23.6582 20.1409 23.8093 20.1725 23.9619 20.1699H29.3779C29.5476 20.1585 29.7116 20.1061 29.8574 20.0186C30.2618 19.7507 30.5644 19.3553 30.7158 18.8945L30.7188 18.8887C30.8159 18.6324 30.8934 18.3685 30.9512 18.1006C31.0053 17.8481 31.0506 17.5763 31.0869 17.2861V17.2822H31.0879L31.8232 12.6211V12.6191L32.0439 11.332L32.3193 9.66016L32.3203 9.65332C32.3867 9.34644 32.4335 9.03531 32.4609 8.72266H32.4365L32.4668 8.54688C32.5814 7.88929 32.4384 7.21319 32.0693 6.65723C31.9734 6.54255 31.8537 6.4502 31.7178 6.3877C31.5792 6.32396 31.4279 6.29271 31.2754 6.2959H25.832Z" fill="white" stroke="white" stroke-width="0.3"/>
<path d="M31.1558 12.2949L28.3705 12.2857L30.2458 7.11035L24.1328 13.7013H26.9089L25.0245 18.8583L31.1558 12.2949Z" fill="white"/>
<path d="M21.1885 5.8584L21.1992 5.85938L21.209 5.8623C21.4844 5.93157 21.736 6.07245 21.9375 6.27051L22.0205 6.35938L22.0264 6.36523H22.0254C22.3644 6.79946 22.5503 7.33401 22.5537 7.88477L22.5605 8.14746C22.5611 8.41 22.5433 8.67239 22.5068 8.93262L22.5059 8.93555L22.1113 11.4268L21.1914 17.3467C21.1308 17.9211 21.0015 18.4858 20.8086 19.0303L20.8096 19.0312C20.6309 19.6067 20.2591 20.1029 19.7568 20.4355L19.749 20.4414L19.748 20.4404C19.5345 20.5638 19.2959 20.6369 19.0498 20.6533L19.0391 20.6543H13.5225C13.3079 20.6518 13.0963 20.6024 12.9023 20.5107C12.7091 20.4194 12.5382 20.2873 12.4004 20.124V20.125C11.8075 19.4518 11.7117 18.2925 12.0254 16.7422L12.999 10.9004L13.2559 9.15723C13.2943 8.81115 13.3573 8.46827 13.4434 8.13086C13.4942 7.90694 13.5597 7.68657 13.6406 7.47168C13.8154 6.90284 14.1793 6.41038 14.6719 6.07617L14.6807 6.07031L14.8457 5.9873C15.0146 5.914 15.1953 5.86977 15.3799 5.85742H20.9053C20.9995 5.84801 21.0944 5.84787 21.1885 5.8584ZM15.3096 6.31152C15.1851 6.33531 15.0653 6.38076 14.9561 6.44629C14.552 6.71414 14.25 7.11069 14.0986 7.57129L14.0957 7.5791C14.0222 7.76555 13.9615 7.95689 13.9131 8.15137V8.34863L13.9102 8.36426C13.856 8.6168 13.8107 8.88848 13.7744 9.17871L13.7734 9.18457L13.4609 11.1328L13.459 11.1436L13.1006 12.6787L12.4033 16.8242L12.4023 16.8291C12.2571 17.5554 12.2111 18.1739 12.2598 18.6748C12.3024 19.1142 12.4172 19.4545 12.5928 19.6992L12.6709 19.7979L12.6748 19.8018C12.7721 19.9192 12.8946 20.0134 13.0332 20.0771C13.1718 20.1409 13.323 20.1725 13.4756 20.1699H18.9844C19.1565 20.1597 19.3237 20.1081 19.4717 20.0195C19.8785 19.7546 20.1827 19.3578 20.3311 18.8955L20.333 18.8877C20.4301 18.6315 20.5077 18.3684 20.5654 18.1006C20.6196 17.848 20.6649 17.5765 20.7012 17.2861L20.7021 17.2812L21.4375 12.6211L21.6309 11.335V11.332L21.916 9.65918L21.917 9.65332L21.9678 9.38379C22.014 9.11236 22.0457 8.83849 22.0615 8.56348V8.55273L22.0645 8.54199C22.1983 7.89943 22.0776 7.22998 21.7295 6.67383C21.6337 6.55973 21.5143 6.46756 21.3789 6.40527C21.2404 6.34155 21.089 6.31032 20.9365 6.31348H19.1533L18.8965 7.00684H21.7842L21.5488 7.25879L15.417 13.8311L15.166 13.6787L16.9336 8.72168H14.0439L14.2783 8.46973L16.2969 6.29492H15.4375L15.3096 6.31152Z" fill="white" stroke="white" stroke-width="0.3"/>
<path d="M42.0029 5.8584L42.0117 5.85938L42.0205 5.86133C42.3394 5.93798 42.6268 6.11152 42.8428 6.3584L42.8496 6.36621C43.1815 6.8015 43.3681 7.32998 43.3848 7.87695C43.4197 8.24314 43.4137 8.61277 43.3662 8.97754L43.3652 8.98047L42.9795 11.4717L42.0596 17.3848L42.0605 17.3857C41.9958 17.9614 41.8669 18.5277 41.6777 19.0752C41.5043 19.6513 41.1353 20.1492 40.6338 20.4814L40.627 20.4863L40.5518 20.3564L40.626 20.4863C40.4123 20.6098 40.173 20.6828 39.9268 20.6992L39.917 20.7002V20.6992H34.3994C34.185 20.6966 33.9732 20.6483 33.7793 20.5566C33.5854 20.4649 33.4135 20.3321 33.2754 20.168V20.167C32.6855 19.4937 32.581 18.3362 32.8945 16.7871L33.876 10.9482L34.1523 9.15527C34.1939 8.80901 34.2594 8.46605 34.3486 8.12891C34.3995 7.90534 34.4651 7.68526 34.5459 7.4707C34.7207 6.9021 35.0847 6.41026 35.5771 6.07617L35.585 6.07031L35.75 5.98633C35.9192 5.91225 36.1008 5.86868 36.2861 5.85742L36.2949 5.85645V5.85742H41.7158C41.8113 5.84705 41.9075 5.84691 42.0029 5.8584ZM36.1494 6.30957C36.0246 6.3325 35.9043 6.37797 35.7959 6.44531L35.7969 6.44629C35.3884 6.70812 35.0853 7.10529 34.9404 7.56836L34.9365 7.5791C34.8633 7.76472 34.8022 7.95486 34.7539 8.14844C34.7513 8.20735 34.751 8.2663 34.7539 8.3252L34.7549 8.34668L34.75 8.36816C34.6859 8.63482 34.6372 8.90532 34.6055 9.17773L34.6045 9.18652L34.2549 11.1318L34.0068 12.668V12.6689L33.3174 16.8232V16.8281H33.3164C33.1711 17.5545 33.1253 18.1735 33.1729 18.6748C33.2146 19.1142 33.3278 19.4545 33.5 19.6992L33.5771 19.7988L33.5791 19.7998L33.4785 19.8838L33.4648 19.8955L33.5791 19.8008C33.6773 19.9175 33.7999 20.0114 33.9385 20.0752C34.0773 20.1391 34.229 20.1714 34.3818 20.1699H36.1904L36.5303 19.2471H33.6445L33.8779 18.9951L39.9814 12.4043L40.2334 12.5566L38.4658 17.5225H41.3574L41.1201 17.7744L38.875 20.1699H39.8076C39.978 20.1603 40.1432 20.1078 40.2881 20.0176C40.6932 19.752 40.9949 19.3556 41.1436 18.8945L41.1455 18.8896C41.239 18.6306 41.3176 18.366 41.3799 18.0977C41.4337 17.8459 41.4785 17.5754 41.5146 17.2861L41.5156 17.2812L42.2412 12.6211L42.2422 12.6201L42.4531 11.333V11.332L42.7383 9.65918L42.7393 9.65234C42.8169 9.29307 42.8682 8.92829 42.8926 8.56152L42.8936 8.55371L42.8945 8.54492C43.0115 7.88878 42.8726 7.2132 42.5068 6.65625C42.4105 6.5421 42.2901 6.45015 42.1543 6.3877C42.0157 6.32402 41.8644 6.29232 41.7119 6.29492H36.2764L36.1494 6.30957Z" fill="white" stroke="white" stroke-width="0.3"/>
<path d="M47.0754 14.4189H43.2422L43.6467 12.5068H53.6204L53.216 14.4189H49.3827L47.0938 25.2108H44.7865L47.0754 14.4189Z" fill="white"/>
<path d="M55.0723 12.5068H57.3796L56.2489 17.7833H62.3619L63.4834 12.5068H65.7815L63.0881 25.2108H60.7992L61.9574 19.6953H55.8536L54.6862 25.2108H52.3789L55.0723 12.5068Z" fill="white"/>
<path d="M68.1445 24.981C67.5092 24.6664 66.9813 24.1706 66.6278 23.5561C66.264 22.9285 66.0796 22.2131 66.0946 21.4878C66.0945 21.08 66.1376 20.6732 66.2233 20.2744L67.8779 12.5068H70.1852L68.5306 20.3112C68.4498 20.6548 68.4066 21.0062 68.4019 21.3591C68.3794 21.6491 68.4259 21.9403 68.5378 22.2087C68.6496 22.4772 68.8236 22.7153 69.0454 22.9035C69.6262 23.2785 70.314 23.4529 71.0034 23.3999C71.8987 23.4315 72.7749 23.1351 73.4672 22.5664C74.1594 21.9976 74.6203 21.1957 74.7631 20.3112L76.4177 12.5068H78.7342L77.0796 20.2744C76.3319 23.7492 74.1564 25.4865 70.5529 25.4865C69.7212 25.5134 68.8952 25.34 68.1445 24.981Z" fill="white"/>
<path d="M80.8106 12.5068H82.9892L87.0614 21.3591L88.8999 12.5068H91.2072L88.5506 25.2108H86.372L82.2997 16.3401L80.4613 25.2108H78.1172L80.8106 12.5068Z" fill="white"/>
<path d="M93.4227 12.5061H97.6788C98.7047 12.4801 99.7231 12.6876 100.657 13.1128C101.454 13.4865 102.123 14.0879 102.578 14.841C103.031 15.6287 103.26 16.525 103.24 17.4332C103.24 17.8897 103.197 18.3452 103.112 18.7937C102.829 20.6832 101.844 22.3966 100.354 23.5921C98.7814 24.723 96.8746 25.2928 94.9395 25.21H90.7109L93.4227 12.5061ZM95.2612 23.3072C96.5897 23.3681 97.8956 22.947 98.9382 22.1214C99.9138 21.2552 100.563 20.0806 100.777 18.7937C100.881 18.3476 100.937 17.8914 100.942 17.4332C100.96 17.0178 100.888 16.6034 100.729 16.2191C100.57 15.8348 100.329 15.4899 100.023 15.2086C99.2359 14.6074 98.2511 14.3251 97.2651 14.4181H95.3347L93.4411 23.3072H95.2612Z" fill="white"/>
<path d="M106.258 12.5068H114.862L114.43 14.4189H108.143L107.426 17.912H112.095L111.673 19.8148H106.994L106.249 23.3079H112.592L112.196 25.2108H103.602L106.258 12.5068Z" fill="white"/>
<path d="M116.498 12.507H121.784C122.761 12.4376 123.732 12.7 124.541 13.2516C124.856 13.5182 125.103 13.8553 125.263 14.2355C125.423 14.6156 125.49 15.0281 125.461 15.4394C125.461 15.8104 125.421 16.1802 125.341 16.5425C125.153 17.4316 124.734 18.2558 124.128 18.9326C123.522 19.6021 122.738 20.0839 121.866 20.3206L123.429 25.211H121.067L119.596 20.5596H117.096L116.112 25.211H113.805L116.498 12.507ZM120.074 18.6568C120.779 18.6938 121.478 18.5142 122.078 18.142C122.576 17.7443 122.904 17.1728 122.997 16.5425C123.054 16.3169 123.084 16.0856 123.089 15.8531C123.11 15.6396 123.074 15.4245 122.985 15.2293C122.896 15.034 122.758 14.8656 122.583 14.7408C122.113 14.4974 121.586 14.3862 121.058 14.4191H118.364L117.445 18.6568H120.074Z" fill="white"/>
<path d="M126.811 25.3203C126.292 25.2451 125.787 25.0933 125.312 24.8698L125.487 23.9506C126.565 24.4203 127.732 24.6493 128.907 24.6216C129.862 24.6757 130.814 24.4725 131.664 24.0333C131.989 23.8329 132.266 23.5649 132.477 23.2476C132.688 22.9303 132.828 22.5712 132.887 22.1948C132.943 21.9692 132.974 21.7379 132.979 21.5054C132.984 21.1751 132.88 20.8524 132.685 20.5862C132.45 20.2914 132.156 20.0501 131.821 19.8783C131.425 19.6669 130.901 19.4003 130.093 19.0878C129.334 18.807 128.639 18.3755 128.052 17.8192C127.833 17.5923 127.661 17.3245 127.546 17.0311C127.431 16.7377 127.375 16.4245 127.381 16.1094C127.382 15.8716 127.406 15.6345 127.454 15.4016C127.653 14.4577 128.21 13.6275 129.008 13.0851C129.936 12.4918 131.023 12.1966 132.124 12.2394C132.694 12.2343 133.263 12.2805 133.825 12.3773C134.33 12.4766 134.82 12.6371 135.286 12.8553L135.102 13.7286C134.137 13.2974 133.09 13.078 132.032 13.0851C131.166 13.049 130.309 13.2697 129.569 13.7194C129.269 13.9046 129.011 14.1495 128.81 14.439C128.609 14.7284 128.47 15.0561 128.401 15.4016C128.358 15.5918 128.333 15.7858 128.328 15.9807C128.327 16.2286 128.38 16.4738 128.483 16.6992C128.586 16.9245 128.737 17.1248 128.925 17.2861C129.542 17.7765 130.235 18.1645 130.975 18.4351C131.784 18.7302 132.541 19.1522 133.218 19.6853C133.455 19.8968 133.642 20.1582 133.766 20.4506C133.89 20.743 133.948 21.0593 133.935 21.3767C133.931 21.665 133.894 21.9518 133.825 22.2316C133.353 24.401 131.661 25.4857 128.75 25.4857C128.1 25.4872 127.451 25.4318 126.811 25.3203Z" fill="white"/>
<path d="M138.273 12.5057H142.796C143.682 12.4533 144.564 12.6712 145.323 13.1308C145.626 13.3474 145.87 13.6372 146.03 13.9731C146.191 14.3091 146.264 14.6802 146.243 15.052C146.23 15.3891 146.187 15.7245 146.114 16.054C145.93 17.1029 145.363 18.0462 144.524 18.7014C143.576 19.33 142.451 19.6363 141.316 19.5747H137.749L136.572 25.2096H135.57L138.273 12.5057ZM141.435 18.7566C142.283 18.7882 143.123 18.5845 143.862 18.1682C144.208 17.9219 144.5 17.6072 144.72 17.2436C144.94 16.8799 145.083 16.475 145.14 16.054C145.207 15.7521 145.244 15.4441 145.25 15.1347C145.28 14.8621 145.234 14.5865 145.117 14.3383C145 14.0901 144.817 13.879 144.588 13.7283C143.969 13.4252 143.281 13.289 142.593 13.333H139.073L137.905 18.7657L141.435 18.7566Z" fill="white"/>
<path d="M148.829 12.5068H149.794L147.11 25.2108H146.145L148.829 12.5068Z" fill="white"/>
<path d="M152.541 12.5068H153.461L158.691 23.5378L161.035 12.5068H162L159.307 25.2108H158.388L153.13 14.1799L150.786 25.2108H149.82L152.541 12.5068Z" fill="white"/>
</svg>
