<svg xmlns="http://www.w3.org/2000/svg" width="140" height="32" viewBox="0 0 140 32">
  <g id="dogecoin" transform="translate(14335 295)">
    <rect id="Rectangle_5760" data-name="Rectangle 5760" width="140" height="32" transform="translate(-14335 -295)" fill="none"/>
    <g id="Group_7958" data-name="Group 7958" transform="translate(-14333.652 -291.758)">
      <path id="Path_4106" data-name="Path 4106" d="M-3179.122,1015.073h-8.053v11.188h-3.308V1029h3.308v11.188h9.385s13.2.992,13.2-12.348C-3164.6,1014.718-3177.216,1015.073-3179.122,1015.073Zm1.116,20.474h-3.884V1029h5.825v-2.74h-5.825v-6.546h3.7c1.384,0,8.351.5,8.362,8.216S-3177.008,1035.547-3178.006,1035.547Z" transform="translate(3190.483 -1015.072)" fill="#d2b024"/>
    </g>
    <path id="Path_9647" data-name="Path 9647" d="M4.147,0A4.227,4.227,0,0,0,8.684-4.329,4.237,4.237,0,0,0,4.147-8.671H.923V0Zm-1.7-7.332h1.7a2.809,2.809,0,0,1,2.977,3,2.847,2.847,0,0,1-2.977,2.99h-1.7ZM12.948.156a3.142,3.142,0,0,0,3.237-3.3,3.139,3.139,0,0,0-3.237-3.289A3.143,3.143,0,0,0,9.724-3.146,3.147,3.147,0,0,0,12.948.156Zm0-1.209a1.887,1.887,0,0,1-1.807-2.093,1.883,1.883,0,0,1,1.807-2.08,1.885,1.885,0,0,1,1.82,2.08A1.889,1.889,0,0,1,12.948-1.053Zm4.537,2.665a3.544,3.544,0,0,0,2.626.936c1.547,0,3.224-.611,3.224-2.873V-6.279H21.97v.871a2.5,2.5,0,0,0-2.015-1.027c-1.612,0-2.782,1.2-2.782,3.224,0,2.067,1.183,3.224,2.782,3.224a2.549,2.549,0,0,0,2.015-1.04v.754a1.651,1.651,0,0,1-1.859,1.7A2.434,2.434,0,0,1,18.122.624ZM21.97-2.041a2.037,2.037,0,0,1-1.612.845A1.788,1.788,0,0,1,18.59-3.211a1.788,1.788,0,0,1,1.768-2.015,2.037,2.037,0,0,1,1.612.845Zm2.743-1.105A3.157,3.157,0,0,0,28,.156a3.66,3.66,0,0,0,2.548-.91l-.624-.9a2.658,2.658,0,0,1-1.781.689,1.9,1.9,0,0,1-2-1.729h4.849v-.325A3.111,3.111,0,0,0,27.9-6.435,3.174,3.174,0,0,0,24.713-3.146ZM27.9-5.317a1.679,1.679,0,0,1,1.768,1.664H26.13A1.732,1.732,0,0,1,27.9-5.317Zm4.056,2.171A3.154,3.154,0,0,0,35.2.156a2.816,2.816,0,0,0,2.4-1.118l-.9-.832a1.707,1.707,0,0,1-1.443.741,1.906,1.906,0,0,1-1.9-2.093,1.9,1.9,0,0,1,1.9-2.08,1.676,1.676,0,0,1,1.443.741l.9-.832a2.816,2.816,0,0,0-2.4-1.118A3.151,3.151,0,0,0,31.954-3.146Zm9.685,3.3a3.142,3.142,0,0,0,3.237-3.3,3.139,3.139,0,0,0-3.237-3.289,3.143,3.143,0,0,0-3.224,3.289A3.147,3.147,0,0,0,41.639.156Zm0-1.209a1.887,1.887,0,0,1-1.807-2.093,1.883,1.883,0,0,1,1.807-2.08,1.885,1.885,0,0,1,1.82,2.08A1.889,1.889,0,0,1,41.639-1.053ZM46.93-7.319a.843.843,0,0,0,.845-.845.843.843,0,0,0-.845-.845.852.852,0,0,0-.845.845A.852.852,0,0,0,46.93-7.319ZM47.619,0V-6.279H46.254V0ZM54.99,0V-4.42a1.81,1.81,0,0,0-2.028-2.015,2.971,2.971,0,0,0-2.21,1.014v-.858H49.387V0h1.365V-4.381a2.067,2.067,0,0,1,1.612-.845c.767,0,1.261.325,1.261,1.3V0Zm8.372,0A4.227,4.227,0,0,0,67.9-4.329a4.237,4.237,0,0,0-4.537-4.342H60.138V0Zm-1.7-7.332h1.7a2.809,2.809,0,0,1,2.977,3,2.847,2.847,0,0,1-2.977,2.99h-1.7Zm7.319,3A4.3,4.3,0,0,0,73.411.156a4.3,4.3,0,0,0,4.433-4.485,4.3,4.3,0,0,0-4.433-4.485A4.3,4.3,0,0,0,68.978-4.329Zm7.306,0A2.887,2.887,0,0,1,73.411-1.2a2.879,2.879,0,0,1-2.873-3.133,2.872,2.872,0,0,1,2.873-3.133A2.88,2.88,0,0,1,76.284-4.329Zm2.639,0a4.384,4.384,0,0,0,4.55,4.5A4.7,4.7,0,0,0,87.048-1.4v-3.25H82.94v1.339h2.587v1.352a3.179,3.179,0,0,1-2.054.78,2.981,2.981,0,0,1-2.99-3.146,2.97,2.97,0,0,1,2.99-3.133,2.761,2.761,0,0,1,2.249,1.157l1.248-.7a4.077,4.077,0,0,0-3.5-1.807A4.374,4.374,0,0,0,78.923-4.329ZM94.575,0V-1.339h-4.42V-3.744h4.329V-5.083H90.155V-7.332h4.42V-8.671H88.634V0Z" transform="translate(-14297 -274)" fill="#ccd6f6"/>
  </g>
</svg>
