<svg xmlns="http://www.w3.org/2000/svg" width="140" height="32" viewBox="0 0 140 32">
  <g id="litecoin" transform="translate(14335 355)">
    <rect id="Rectangle_5754" data-name="Rectangle 5754" width="140" height="32" transform="translate(-14335 -355)" fill="none"/>
    <path id="Path_9648" data-name="Path 9648" d="M6.266,0V-1.339H2.444V-8.671H.923V0ZM8.281-7.319a.843.843,0,0,0,.845-.845.843.843,0,0,0-.845-.845.852.852,0,0,0-.845.845A.852.852,0,0,0,8.281-7.319ZM8.97,0V-6.279H7.605V0Zm3.653.156a1.8,1.8,0,0,0,1.287-.4l-.325-1.027a.881.881,0,0,1-.611.221c-.39,0-.6-.312-.6-.741V-5.083H13.65v-1.2H12.376V-7.995H11.011v1.716H9.971v1.2h1.04v3.627A1.448,1.448,0,0,0,12.623.156Zm1.872-3.3a3.157,3.157,0,0,0,3.289,3.3,3.66,3.66,0,0,0,2.548-.91l-.624-.9a2.658,2.658,0,0,1-1.781.689,1.9,1.9,0,0,1-2-1.729h4.849v-.325A3.111,3.111,0,0,0,17.68-6.435,3.174,3.174,0,0,0,14.5-3.146ZM17.68-5.317a1.679,1.679,0,0,1,1.768,1.664H15.912A1.732,1.732,0,0,1,17.68-5.317Zm4.056,2.171a3.154,3.154,0,0,0,3.25,3.3A2.816,2.816,0,0,0,27.391-.962l-.9-.832a1.707,1.707,0,0,1-1.443.741,1.906,1.906,0,0,1-1.9-2.093,1.9,1.9,0,0,1,1.9-2.08,1.676,1.676,0,0,1,1.443.741l.9-.832a2.816,2.816,0,0,0-2.405-1.118A3.151,3.151,0,0,0,21.736-3.146Zm9.685,3.3a3.142,3.142,0,0,0,3.237-3.3,3.139,3.139,0,0,0-3.237-3.289A3.143,3.143,0,0,0,28.2-3.146,3.147,3.147,0,0,0,31.421.156Zm0-1.209a1.887,1.887,0,0,1-1.807-2.093,1.883,1.883,0,0,1,1.807-2.08,1.885,1.885,0,0,1,1.82,2.08A1.889,1.889,0,0,1,31.421-1.053Zm5.291-6.266a.843.843,0,0,0,.845-.845.843.843,0,0,0-.845-.845.852.852,0,0,0-.845.845A.852.852,0,0,0,36.712-7.319ZM37.4,0V-6.279H36.036V0Zm7.371,0V-4.42a1.81,1.81,0,0,0-2.028-2.015,2.971,2.971,0,0,0-2.21,1.014v-.858H39.169V0h1.365V-4.381a2.067,2.067,0,0,1,1.612-.845c.767,0,1.261.325,1.261,1.3V0ZM55.263,0V-1.339H51.441V-8.671H49.92V0Zm3.666,0V-7.332h2.626V-8.671H54.782v1.339h2.626V0Zm7.683.156a3.968,3.968,0,0,0,3.549-1.95l-1.3-.663A2.574,2.574,0,0,1,66.612-1.2a2.958,2.958,0,0,1-2.925-3.133,2.958,2.958,0,0,1,2.925-3.133A2.6,2.6,0,0,1,68.861-6.2l1.3-.663a3.952,3.952,0,0,0-3.549-1.95,4.358,4.358,0,0,0-4.485,4.485A4.358,4.358,0,0,0,66.612.156Z" transform="translate(-14297 -334)" fill="#ccd6f6"/>
    <g id="litecoin-ltc-logo" transform="translate(-14333.652 -353)">
      <path id="Path_4101" data-name="Path 4101" d="M33.653,29.105,31.193,37H44.348a.683.683,0,0,1,.476.169.618.618,0,0,1,.21.44v.207L43.89,41.567a.848.848,0,0,1-.858.6H22.9l3.374-10.938L22.5,32.316l.858-2.5,3.775-1.088L30.913,14.3a.86.86,0,0,1,.858-.6h5.09a.683.683,0,0,1,.476.169.618.618,0,0,1,.21.44v.207L34.511,26.548l3.775-1.088-.8,2.612Z" transform="translate(-22.5 -13.699)" fill="#487ac8"/>
    </g>
  </g>
</svg>
