<svg xmlns="http://www.w3.org/2000/svg" xmlns:xlink="http://www.w3.org/1999/xlink" width="140" height="32" viewBox="0 0 140 32">
  <defs>
    <clipPath id="clip-path">
      <rect id="Rectangle_7024" data-name="Rectangle 7024" width="27.211" height="26.682" fill="none"/>
    </clipPath>
  </defs>
  <g id="Tron_trx" data-name="Tron trx" transform="translate(14166 295)">
    <rect id="Rectangle_5761" data-name="Rectangle 5761" width="140" height="32" transform="translate(-14166 -295)" fill="none"/>
    <path id="Path_11244" data-name="Path 11244" d="M4.511,0V-7.332H7.137V-8.671H.364v1.339H2.99V0ZM15.132,0,13.013-3.406a2.432,2.432,0,0,0,2.054-2.548,2.632,2.632,0,0,0-2.834-2.717H8.424V0H9.945V-3.237h1.508L13.377,0ZM13.507-5.954a1.367,1.367,0,0,1-1.482,1.378H9.945V-7.332h2.08A1.367,1.367,0,0,1,13.507-5.954ZM16.2-4.329A4.3,4.3,0,0,0,20.631.156a4.3,4.3,0,0,0,4.433-4.485,4.3,4.3,0,0,0-4.433-4.485A4.3,4.3,0,0,0,16.2-4.329Zm7.306,0A2.887,2.887,0,0,1,20.631-1.2a2.879,2.879,0,0,1-2.873-3.133,2.872,2.872,0,0,1,2.873-3.133A2.88,2.88,0,0,1,23.5-4.329ZM34.047,0V-8.671H32.526v6.149L28.093-8.671h-1.56V0h1.521V-6.318L32.578,0Zm8.775,0V-7.332h2.626V-8.671H38.675v1.339H41.3V0ZM53.443,0,51.324-3.406a2.432,2.432,0,0,0,2.054-2.548,2.632,2.632,0,0,0-2.834-2.717H46.735V0h1.521V-3.237h1.508L51.688,0ZM51.818-5.954a1.367,1.367,0,0,1-1.482,1.378h-2.08V-7.332h2.08A1.367,1.367,0,0,1,51.818-5.954ZM62.517,0,59.28-4.459l3.042-4.212H60.489L58.266-5.486,56.03-8.671H54.21l3.055,4.225L54.015,0h1.82l2.431-3.393L60.7,0Z" transform="translate(-14122 -274)" fill="#ccd6f6"/>
    <g id="Group_9890" data-name="Group 9890" transform="translate(-14160.879 -292)">
      <g id="Group_9832" data-name="Group 9832" clip-path="url(#clip-path)">
        <path id="Path_11217" data-name="Path 11217" d="M27.21,7.819a.451.451,0,0,1-.108.318Q19.738,17.2,12.383,26.265a.981.981,0,0,1-.957.407.792.792,0,0,1-.674-.52Q9.58,23.37,8.394,20.592L.081,1.039C-.2.369.29-.125,1.121.028,2.136.215,3.141.436,4.15.643L20.081,3.92q.956.2,1.913.39a2.007,2.007,0,0,1,.633.238c1.356.805,2.707,1.616,4.071,2.412a.911.911,0,0,1,.513.86m-11.4,3.592c.109.08.182-.013.256-.046Q19.8,9.728,23.52,8.085c.41-.18.82-.359,1.247-.546L22.44,6.167c-.494-.291-.494-.29-.9.079q-2.746,2.5-5.495,4.989c-.069.063-.118.15-.231.174.017.008,0,.057.048.03l-.05-.029M24.544,8.9c-.1-.068-.172.012-.244.044q-3.23,1.419-6.457,2.842c-1.322.582-2.645,1.164-3.973,1.735-.16.069-.233.139-.25.288q-.223,1.927-.461,3.853c-.212,1.733-.429,3.465-.636,5.2a4.108,4.108,0,0,0-.065.884l.111-.135q5.895-7.262,11.792-14.523c.054-.066.082-.153.184-.187l-.028-.027.028.029M2.94,1.864c.053.061.079.094.109.124q4.989,5.089,9.976,10.179c.111.113.161.122.287.008q2.993-2.73,6-5.452L20.656,5.5,2.94,1.864m-.763.89-.043.024,8.956,21.054a12.118,12.118,0,0,0,.21-1.307c.156-1.305.3-2.611.466-3.915.22-1.753.452-3.5.68-5.257a.267.267,0,0,0-.089-.244Q8.33,9.021,4.309,4.928,3.242,3.842,2.177,2.754" transform="translate(0 0)" fill="#ff060a"/>
      </g>
    </g>
  </g>
</svg>
